<?xml version="1.0" encoding="utf-8"?>
<!-- Generator: Adobe Illustrator 16.0.0, SVG Export Plug-In . SVG Version: 6.00 Build 0)  -->
<!DOCTYPE svg PUBLIC "-//W3C//DTD SVG 1.1//EN" "http://www.w3.org/Graphics/SVG/1.1/DTD/svg11.dtd">
<svg version="1.1" id="Layer_1" xmlns="http://www.w3.org/2000/svg" xmlns:xlink="http://www.w3.org/1999/xlink" x="0px" y="0px"
	 width="200px" height="200px" viewBox="0 0 200 200" enable-background="new 0 0 200 200" xml:space="preserve">
<path fill="#FFFFFF" d="M175.914,112.687c4.969-0.001,8.995-5.693,8.993-12.712l0,0c-0.002-7.019-4.032-12.707-9.003-12.706
	L29.858,87.311c-4.969,0.001-8.996,5.693-8.993,12.712l0,0c0.002,7.019,4.032,12.706,9,12.706L175.914,112.687z"/>
<path fill="#FFFFFF" d="M114.793,30.621c-0.002-4.721-5.993-8.545-13.381-8.543l0,0c-7.388,0.001-13.377,3.831-13.375,8.552
	l0.044,138.749c0.001,4.721,5.992,8.546,13.379,8.544l0,0c7.389-0.003,13.376-3.83,13.376-8.552L114.793,30.621z"/>
</svg>
